:FULLY-SPECIFIED
:FORCE-ALL-JOINTS-BE-3DOF
:DEGREES
2446
root 2.43268 14.7525 -23.3609 -132.492 85.8174 -135.258
lfemur -44.6894 15.4287 -14.4904
ltibia 73.4644 0 0
lfoot -19.5591 13.7014 -0.0935081
ltoes -39.2994 0 0
rfemur -38.8834 -20.5337 18.5459
rtibia 80.2341 0 0
rfoot -3.16869 -11.2563 0.792876
rtoes -6.89409 0 0
lowerback 16.0569 2.98187 -1.96475
upperback -1.03274 3.73564 1.23755
thorax -10.2302 1.93663 1.54291
lowerneck 2.89432 -12.6644 -13.8147
upperneck -0.315035 -17.4551 13.0382
head 1.98362 -8.78924 5.61104
lclavicle 3.7865e-15 1.0203e-14 5.14154e-31
lhumerus -23.1489 -35.5986 101.261
lradius 97.1655 0 0
lwrist 37.4767 0 0
lhand -20.0586 41.4293 0.0574837
lfingers 7.12502 0 0
lthumb 6.22098 70.3895 -0.236623
rclavicle 3.7865e-15 1.0203e-14 5.14154e-31
rhumerus 44.2934 37.0617 -54.7329
rradius 113.593 0 0
rwrist -32.3046 0 0
rhand -17.5278 -41.2162 0.367765
rfingers 7.12502 0 0
rthumb 8.7194 -70.6495 0.363349
2447
root 2.49834 14.7452 -23.3785 -129.54 86.0711 -132.11
lfemur -44.2372 15.6227 -14.4992
ltibia 73.6383 0 0
lfoot -19.831 13.9153 -0.0984981
ltoes -39.1091 0 0
rfemur -39.0909 -20.4672 18.1271
rtibia 79.0454 0 0
rfoot -2.59693 -10.7983 0.864501
rtoes -6.37009 0 0
lowerback 16.0581 2.84849 -2.06532
upperback -1.03111 3.54844 1.32839
thorax -10.2212 1.85651 1.74652
lowerneck 2.83227 -12.5733 -13.7664
upperneck -0.0989115 -17.3365 12.861
head 2.04553 -8.72704 5.55187
lclavicle 3.85909e-15 8.86427e-15 5.61489e-31
lhumerus -23.5587 -36.2635 101.416
lradius 97.72 0 0
lwrist 38.5336 0 0
lhand -18.9535 41.457 0.0615745
lfingers 7.12502 0 0
lthumb 7.28114 70.2981 -0.256181
rclavicle 3.85909e-15 8.86427e-15 5.61489e-31
rhumerus 41.9184 36.0135 -56.2178
rradius 113.275 0 0
rwrist -29.7271 0 0
rhand -18.2473 -41.4342 0.397389
rfingers 7.12502 0 0
rthumb 8.02474 -70.8639 0.39322
2448
root 2.56401 14.7379 -23.3962 -126.747 86.2764 -129.099
lfemur -43.7306 15.8473 -14.5002
ltibia 73.8121 0 0
lfoot -20.148 14.1433 -0.104028
ltoes -38.9233 0 0
rfemur -39.3106 -20.422 17.66
rtibia 77.7395 0 0
rfoot -1.94789 -10.2748 0.936097
rtoes -5.79347 0 0
lowerback 16.0576 2.70279 -2.18092
upperback -1.0293 3.34309 1.4288
thorax -10.2102 1.76887 1.97383
lowerneck 2.77614 -12.4949 -13.7352
upperneck 0.123114 -17.2362 12.6946
head 2.11018 -8.67446 5.49637
lclavicle 3.97152e-15 7.39538e-15 6.13475e-31
lhumerus -24.0932 -36.9548 101.629
lradius 98.3155 0 0
lwrist 39.7748 0 0
lhand -17.7152 41.487 0.0656366
lfingers 7.12502 0 0
lthumb 8.46919 70.1954 -0.27575
rclavicle 3.97152e-15 7.39538e-15 6.13475e-31
rhumerus 39.4121 34.7694 -57.769
rradius 112.944 0 0
rwrist -26.9 0 0
rhand -19.0598 -41.6757 0.427071
rfingers 7.12502 0 0
rthumb 7.24039 -71.1028 0.423139
2449
root 2.62967 14.7306 -23.4139 -124.332 86.4321 -126.443
lfemur -43.1657 16.1045 -14.4916
ltibia 73.9848 0 0
lfoot -20.5139 14.3858 -0.109857
ltoes -38.7434 0 0
rfemur -39.5426 -20.4009 17.1415
rtibia 76.3102 0 0
rfoot -1.21621 -9.68115 1.00558
rtoes -5.16141 0 0
lowerback 16.0552 2.54414 -2.31261
upperback -1.02738 3.1185 1.53939
thorax -10.197 1.67334 2.22631
lowerneck 2.72685 -12.4314 -13.7233
upperneck 0.350696 -17.1567 12.5409
head 2.17755 -8.63289 5.44526
lclavicle 4.12776e-15 5.78951e-15 6.68572e-31
lhumerus -24.7666 -37.6705 101.911
lradius 98.9533 0 0
lwrist 41.2145 0 0
lhand -16.3352 41.5194 0.0695261
lfingers 7.12502 0 0
lthumb 9.79324 70.0807 -0.294717
rclavicle 4.12776e-15 5.78951e-15 6.68572e-31
rhumerus 36.7882 33.3093 -59.3681
rradius 112.601 0 0
rwrist -23.8105 0 0
rhand -19.9714 -41.9422 0.455864
rfingers 7.12502 0 0
rthumb 6.36041 -71.3675 0.452168
2450
root 2.69534 14.7234 -23.4316 -122.535 86.5379 -124.382
lfemur -42.5388 16.3964 -14.472
ltibia 74.1555 0 0
lfoot -20.9321 14.6432 -0.115672
ltoes -38.5709 0 0
rfemur -39.7868 -20.407 16.5687
rtibia 74.7513 0 0
rfoot -0.396579 -9.01268 1.07034
rtoes -4.47106 0 0
lowerback 16.0509 2.37194 -2.46146
upperback -1.02541 2.87378 1.66066
thorax -10.1816 1.5695 2.50539
lowerneck 2.68535 -12.3847 -13.7328
upperneck 0.583506 -17.1009 12.4019
head 2.24763 -8.60376 5.39923
lclavicle 4.33175e-15 4.03989e-15 7.24686e-31
lhumerus -25.5941 -38.408 102.271
lradius 99.6349 0 0
lwrist 42.8671 0 0
lhand -14.8052 41.5542 0.0730677
lfingers 7.12502 0 0
lthumb 11.2614 69.9533 -0.312317
rclavicle 4.33175e-15 4.03989e-15 7.24686e-31
rhumerus 34.0615 31.6128 -60.9939
rradius 112.245 0 0
rwrist -20.4457 0 0
rhand -20.9883 -42.2351 0.482595
rfingers 7.12502 0 0
rthumb 5.37883 -71.6598 0.47914
2451
root 2.76101 14.7161 -23.4493 -121.591 86.5936 -123.149
lfemur -41.8462 16.7251 -14.4392
ltibia 74.3231 0 0
lfoot -21.4059 14.9159 -0.121077
ltoes -38.4075 0 0
rfemur -40.0429 -20.4432 15.9388
rtibia 73.0567 0 0
rfoot 0.516303 -8.26477 1.1272
rtoes -3.71958 0 0
lowerback 16.0445 2.18565 -2.62845
upperback -1.0235 2.60798 1.79317
thorax -10.1639 1.45696 2.81254
lowerneck 2.65258 -12.3566 -13.7658
upperneck 0.821223 -17.0716 12.2796
head 2.3204 -8.58847 5.35898
lclavicle 4.58745e-15 2.1397e-15 7.79087e-31
lhumerus -26.5917 -39.1641 102.72
lradius 100.362 0 0
lwrist 44.7467 0 0
lhand -13.1166 41.5917 0.0760522
lfingers 7.12502 0 0
lthumb 12.8817 69.8124 -0.327625
rclavicle 4.58745e-15 2.1397e-15 7.79087e-31
rhumerus 31.248 29.6602 -62.6236
rradius 111.876 0 0
rwrist -16.7926 0 0
rhand -22.1167 -42.5558 0.505838
rfingers 7.12502 0 0
rthumb 4.28972 -71.9809 0.502639
